<?xml version="1.0" encoding="iso-8859-1"?>
<!-- Generator: Adobe Illustrator 19.0.0, SVG Export Plug-In . SVG Version: 6.00 Build 0)  -->
<svg version="1.1" id="Capa_1" xmlns="http://www.w3.org/2000/svg" xmlns:xlink="http://www.w3.org/1999/xlink" x="0px" y="0px"
	 viewBox="0 0 189.552 189.552" style="enable-background:new 0 0 189.552 189.552;" xml:space="preserve">
<g>
	<g>
		<path d="M29.67,160.286c-9.631-9.631-21.047-12.749-26.551-7.241c-5.504,5.504-2.391,16.916,7.241,26.549
			c4.234,4.236,9.098,7.412,13.694,8.943c2.036,0.679,3.954,1.015,5.707,1.015c2.894,0,5.345-0.915,7.147-2.717
			C42.414,181.331,39.302,169.918,29.67,160.286z M32.082,182.008c-0.928,0.928-3.176,0.951-5.868,0.053
			c-3.558-1.186-7.578-3.845-11.027-7.294c-7.366-7.366-9.207-14.927-7.241-16.894c0.483-0.483,1.299-0.736,2.367-0.736
			c3.29,0,8.965,2.412,14.529,7.975C32.206,172.48,34.049,180.041,32.082,182.008z"/>
	</g>
</g>
<g>
	<g>
		<path d="M65.872,138.562l-14.481-14.481c-1.333-1.333-3.494-1.333-4.826,0l-29.297,29.297c-1.333,1.333-1.333,3.494,0,4.826
			c1.333,1.333,3.494,1.333,4.826,0l26.883-26.882l9.655,9.655L31.75,167.858c-1.333,1.333-1.333,3.494,0,4.826
			c0.667,0.667,1.539,1,2.413,1c0.874,0,1.748-0.333,2.413-1l29.295-29.297C67.205,142.055,67.205,139.895,65.872,138.562z"/>
	</g>
</g>
<g>
	<g>
		<path d="M90.006,143.39L46.563,99.945c-1.333-1.333-3.494-1.333-4.826,0l-9.655,9.655c-0.64,0.64-1,1.509-1,2.413
			s0.36,1.773,1,2.413l43.445,43.445c0.64,0.64,1.509,1,2.413,1c0.906,0,1.775-0.36,2.413-1l9.653-9.655
			C91.339,146.883,91.339,144.723,90.006,143.39z M77.941,150.63l-38.618-38.617l4.828-4.826l38.617,38.617L77.941,150.63z"/>
	</g>
</g>
<g>
	<g>
		<path d="M188.108,0.962c-0.727-0.707-1.739-1.055-2.737-0.94l-26.146,2.816c-0.775,0.084-1.498,0.428-2.048,0.98L93.624,67.368
			c-1.333,1.333-1.333,3.494,0,4.826c1.333,1.333,3.494,1.333,4.826,0l62.701-62.7l20.876-2.248l-1.613,21.601l-60.942,60.943
			c-1.333,1.333-1.333,3.494,0,4.826c0.667,0.667,1.539,1,2.413,1c0.872,0,1.746-0.334,2.413-1l61.838-61.839
			c0.579-0.577,0.93-1.343,0.99-2.159l2.012-26.952C189.214,2.658,188.837,1.667,188.108,0.962z"/>
	</g>
</g>
<g>
	<g>
		<path d="M96.597,117.488c-1.333-1.333-3.494-1.333-4.826,0L77.938,131.32l-19.309-19.307l13.568-13.568
			c1.333-1.333,1.333-3.494,0-4.826c-1.333-1.333-3.494-1.333-4.826,0L51.389,109.6c-0.64,0.64-1,1.509-1,2.413s0.36,1.773,1,2.413
			l24.137,24.136c0.64,0.642,1.509,1,2.413,1c0.906,0,1.775-0.36,2.41-1l16.247-16.247C97.93,120.981,97.93,118.821,96.597,117.488z
			"/>
	</g>
</g>
<g>
	<g>
		<path d="M169.243,20.711c-1.333-1.333-3.494-1.333-4.826,0l-58.477,58.476c-1.333,1.333-1.333,3.494,0,4.826
			c0.667,0.667,1.539,1,2.413,1s1.746-0.333,2.413-1l58.477-58.476C170.576,24.205,170.576,22.044,169.243,20.711z"/>
	</g>
</g>
<g>
	<g>
		<path d="M85.526,104.428c-1.333-1.333-3.494-1.333-4.826,0l-14.828,14.826c-1.333,1.333-1.333,3.494,0,4.826
			c0.667,0.667,1.539,1,2.413,1c0.874,0,1.748-0.335,2.413-1l14.828-14.826C86.859,107.922,86.859,105.761,85.526,104.428z"/>
	</g>
</g>
<g>
	<g>
		<path d="M186.839,152.642c-5.504-5.501-16.918-2.391-26.551,7.241c-4.236,4.236-7.412,9.098-8.945,13.694
			c-1.797,5.393-1.191,9.958,1.705,12.855c1.802,1.804,4.253,2.719,7.148,2.719c1.753,0,3.671-0.336,5.707-1.015
			c4.596-1.533,9.46-4.709,13.694-8.945C189.228,169.56,192.343,158.147,186.839,152.642z M174.769,174.364
			c-3.451,3.449-7.47,6.108-11.027,7.294c-2.691,0.896-4.936,0.876-5.868-0.055c-0.93-0.928-0.951-3.178-0.055-5.867
			c1.186-3.558,3.845-7.576,7.294-11.027c5.564-5.564,11.238-7.975,14.532-7.975c1.067,0,1.884,0.254,2.364,0.736
			C183.978,159.439,182.135,166.998,174.769,174.364z"/>
	</g>
</g>
<g>
	<g>
		<path d="M172.87,153.155l-29.476-29.476c-1.333-1.333-3.494-1.333-4.826,0l-14.481,14.481c-0.64,0.64-1,1.509-1,2.413
			s0.36,1.773,1,2.413l29.629,29.629c0.667,0.667,1.539,1,2.413,1c0.874,0,1.746-0.333,2.413-1c1.333-1.333,1.333-3.494,0-4.826
			l-27.216-27.216l9.655-9.655l27.063,27.063c1.333,1.333,3.494,1.333,4.826,0C174.203,156.649,174.203,154.488,172.87,153.155z"/>
	</g>
</g>
<g>
	<g>
		<path d="M157.875,109.197l-9.655-9.655c-1.333-1.333-3.494-1.333-4.826,0l-43.445,43.445c-0.64,0.64-1,1.509-1,2.413
			s0.36,1.773,1,2.413l9.655,9.655c0.667,0.667,1.539,1,2.413,1c0.874,0,1.748-0.333,2.413-1l43.445-43.445
			c0.64-0.64,1-1.509,1-2.413S158.515,109.837,157.875,109.197z M112.017,150.23l-4.828-4.828l38.618-38.617l4.828,4.828
			L112.017,150.23z"/>
	</g>
</g>
<g>
	<g>
		<path d="M138.567,109.199L32.783,3.414c-0.579-0.579-1.343-0.93-2.161-0.992L3.671,0.411c-1.014-0.072-2,0.302-2.707,1.031
			c-0.705,0.727-1.048,1.732-0.94,2.739L2.84,30.328c0.084,0.775,0.428,1.497,0.98,2.048l76.877,76.878l28.908,28.906
			c0.667,0.667,1.539,1,2.413,1c0.874,0,1.748-0.335,2.413-1l24.137-24.136c0.64-0.64,1-1.509,1-2.413
			S139.207,109.839,138.567,109.199z M112.017,130.919l-26.493-26.491L9.497,28.402L7.25,7.526l21.6,1.611l102.477,102.475
			L112.017,130.919z"/>
	</g>
</g>
<g>
	<g>
		<path d="M124.086,118.851L25.543,20.309c-1.333-1.333-3.494-1.333-4.826,0c-1.333,1.333-1.333,3.494,0,4.826l98.543,98.543
			c0.667,0.667,1.539,1,2.413,1c0.872,0,1.746-0.333,2.413-1C125.419,122.345,125.419,120.184,124.086,118.851z"/>
	</g>
</g>
<g>
</g>
<g>
</g>
<g>
</g>
<g>
</g>
<g>
</g>
<g>
</g>
<g>
</g>
<g>
</g>
<g>
</g>
<g>
</g>
<g>
</g>
<g>
</g>
<g>
</g>
<g>
</g>
<g>
</g>
</svg>
